<svg width="588" height="71" viewBox="0 0 588 71" fill="none" xmlns="http://www.w3.org/2000/svg">
<path d="M144 40C144 23.4315 157.431 10 174 10C190.569 10 204 23.4315 204 40C204 56.5685 190.569 70 174 70C157.431 70 144 56.5685 144 40Z" fill="#EFF6F1"/>
<g clip-path="url(#clip0_1_467)">
<path fill-rule="evenodd" clip-rule="evenodd" d="M183.283 40.2843C183.283 35.1572 178.966 31 173.641 31C168.317 31 164 35.1572 164 40.2843C164 44.9182 167.525 48.7592 172.135 49.4563V42.9689H169.686V40.2843H172.135V38.2389C172.135 35.9124 173.575 34.6263 175.777 34.6263C176.832 34.6263 177.935 34.8078 177.935 34.8078V37.0928H176.719C175.522 37.0928 175.148 37.8082 175.148 38.5435V40.2843H177.821L177.394 42.9689H175.148V49.4572C179.758 48.7604 183.283 44.9194 183.283 40.2843Z" fill="#274C5B"/>
</g>
<path d="M224 40C224 23.4315 237.431 10 254 10C270.569 10 284 23.4315 284 40C284 56.5685 270.569 70 254 70C237.431 70 224 56.5685 224 40Z" fill="#EFF6F1"/>
<g clip-path="url(#clip1_1_467)">
<path d="M264.66 33.9584C263.885 34.2952 263.065 34.517 262.226 34.617C263.108 34.1006 263.771 33.2803 264.091 32.3099C263.257 32.7974 262.347 33.1395 261.398 33.3214C260.999 32.9028 260.519 32.5698 259.987 32.3427C259.455 32.1155 258.882 31.9989 258.303 32C255.961 32 254.065 33.868 254.065 36.1708C254.064 36.4911 254.1 36.8104 254.175 37.122C252.495 37.0433 250.85 36.6148 249.346 35.864C247.841 35.1132 246.51 34.0566 245.437 32.7619C245.061 33.3963 244.862 34.1203 244.861 34.858C244.861 36.3042 245.615 37.5826 246.755 38.3315C246.08 38.3155 245.418 38.1368 244.827 37.8107V37.8623C244.827 39.8853 246.291 41.5682 248.228 41.9513C247.863 42.0484 247.488 42.0976 247.111 42.0977C246.844 42.0981 246.577 42.0722 246.314 42.0202C246.853 43.6773 248.42 44.8825 250.276 44.9169C248.768 46.0794 246.916 46.7078 245.011 46.7032C244.673 46.7027 244.336 46.6825 244 46.6429C245.937 47.88 248.189 48.5344 250.488 48.5281C258.294 48.5281 262.559 42.1708 262.559 36.6571C262.559 36.4764 262.554 36.2956 262.545 36.1191C263.373 35.5303 264.089 34.7987 264.66 33.9584Z" fill="#274C5B"/>
</g>
<path d="M304 40C304 23.4315 317.431 10 334 10C350.569 10 364 23.4315 364 40C364 56.5685 350.569 70 334 70C317.431 70 304 56.5685 304 40Z" fill="#EFF6F1"/>
<g clip-path="url(#clip2_1_467)">
<path d="M337.658 32.5473C338.723 32.5503 339.743 32.9589 340.496 33.6838C341.249 34.4086 341.673 35.3909 341.676 36.416V44.1527C341.673 45.1778 341.249 46.16 340.496 46.8849C339.743 47.6098 338.723 48.0183 337.658 48.0214H329.624C328.56 48.0183 327.54 47.6098 326.787 46.8849C326.034 46.16 325.61 45.1778 325.607 44.1527V36.416C325.61 35.3909 326.034 34.4086 326.787 33.6838C327.54 32.9589 328.56 32.5503 329.624 32.5473H337.658ZM337.658 31H329.624C326.531 31 324 33.4371 324 36.416V44.1527C324 47.1315 326.531 49.5686 329.624 49.5686H337.658C340.752 49.5686 343.283 47.1315 343.283 44.1527V36.416C343.283 33.4371 340.752 31 337.658 31Z" fill="#274C5B"/>
<path d="M338.863 36.4168C338.625 36.4168 338.392 36.3487 338.194 36.2212C337.996 36.0937 337.841 35.9124 337.75 35.7004C337.659 35.4883 337.635 35.255 337.681 35.0298C337.728 34.8047 337.843 34.5979 338.011 34.4356C338.18 34.2733 338.394 34.1628 338.628 34.118C338.862 34.0732 339.104 34.0962 339.324 34.184C339.545 34.2719 339.733 34.4206 339.865 34.6115C339.998 34.8023 340.068 35.0267 340.068 35.2562C340.069 35.4087 340.038 35.5598 339.977 35.7007C339.917 35.8417 339.828 35.9698 339.716 36.0776C339.604 36.1854 339.471 36.2709 339.325 36.3291C339.178 36.3873 339.022 36.4171 338.863 36.4168ZM333.641 37.1902C334.277 37.1902 334.898 37.3717 335.427 37.7118C335.955 38.0519 336.367 38.5352 336.61 39.1007C336.854 39.6663 336.917 40.2885 336.793 40.8889C336.669 41.4893 336.363 42.0407 335.914 42.4736C335.464 42.9064 334.891 43.2012 334.268 43.3206C333.645 43.44 332.998 43.3787 332.411 43.1445C331.824 42.9102 331.322 42.5135 330.969 42.0046C330.616 41.4956 330.427 40.8972 330.427 40.2851C330.428 39.4646 330.767 38.6779 331.369 38.0976C331.972 37.5174 332.789 37.1911 333.641 37.1902ZM333.641 35.6429C332.688 35.6429 331.756 35.9152 330.963 36.4253C330.17 36.9354 329.552 37.6604 329.187 38.5086C328.822 39.3569 328.727 40.2903 328.913 41.1908C329.099 42.0913 329.558 42.9184 330.232 43.5676C330.906 44.2168 331.765 44.659 332.701 44.8381C333.636 45.0172 334.605 44.9253 335.486 44.5739C336.367 44.2226 337.12 43.6276 337.649 42.8642C338.179 42.1008 338.462 41.2033 338.462 40.2851C338.462 39.0539 337.954 37.8732 337.05 37.0026C336.146 36.132 334.92 35.6429 333.641 35.6429Z" fill="#274C5B"/>
</g>
<path d="M384 40C384 23.4315 397.431 10 414 10C430.569 10 444 23.4315 444 40C444 56.5685 430.569 70 414 70C397.431 70 384 56.5685 384 40Z" fill="#EFF6F1"/>
<g clip-path="url(#clip3_1_467)">
<path d="M413.797 30C408.387 30 404 34.3847 404 39.7923C404 43.801 406.414 47.2458 409.865 48.7627C409.839 48.0807 409.86 47.2589 410.035 46.5157C410.223 45.7201 411.295 41.178 411.295 41.178C411.295 41.178 410.98 40.5529 410.98 39.6305C410.98 38.1792 411.82 37.095 412.869 37.095C413.762 37.095 414.19 37.7639 414.19 38.5639C414.19 39.46 413.617 40.7977 413.324 42.0392C413.079 43.0797 413.845 43.9234 414.873 43.9234C416.727 43.9234 417.978 41.5409 417.978 38.7169C417.978 36.5704 416.53 34.9661 413.902 34.9661C410.932 34.9661 409.078 37.1824 409.078 39.6567C409.078 40.5092 409.331 41.1125 409.725 41.5759C409.904 41.7901 409.93 41.8775 409.865 42.1223C409.817 42.3015 409.712 42.7343 409.664 42.9092C409.598 43.1584 409.397 43.2458 409.174 43.154C407.805 42.5944 407.166 41.0994 407.166 39.4119C407.166 36.6316 409.515 33.2961 414.168 33.2961C417.908 33.2961 420.37 36.0021 420.37 38.9048C420.37 42.7474 418.231 45.6152 415.082 45.6152C414.024 45.6152 413.031 45.0425 412.69 44.3955C412.69 44.3955 412.122 46.6512 411.999 47.0884C411.794 47.8447 411.387 48.5966 411.015 49.1867C411.917 49.4526 412.852 49.5881 413.792 49.5889C419.202 49.5889 423.589 45.2042 423.589 39.7966C423.589 34.389 419.207 30 413.797 30Z" fill="#274C5B"/>
</g>
<defs>
<clipPath id="clip0_1_467">
<rect width="20" height="19" fill="white" transform="translate(164 31)"/>
</clipPath>
<clipPath id="clip1_1_467">
<rect width="21" height="17" fill="white" transform="translate(244 32)"/>
</clipPath>
<clipPath id="clip2_1_467">
<rect width="20" height="19" fill="white" transform="translate(324 31)"/>
</clipPath>
<clipPath id="clip3_1_467">
<rect width="20" height="20" fill="white" transform="translate(404 30)"/>
</clipPath>
</defs>
</svg>
